<svg width="20" height="14" viewBox="0 0 20 14" fill="none" xmlns="http://www.w3.org/2000/svg">
<path id="Vector" d="M19.1556 1.53104L7.15562 13.531C7.08597 13.6008 7.00325 13.6561 6.9122 13.6938C6.82116 13.7316 6.72356 13.751 6.625 13.751C6.52644 13.751 6.42884 13.7316 6.33779 13.6938C6.24675 13.6561 6.16403 13.6008 6.09437 13.531L0.844374 8.28104C0.703644 8.14031 0.624582 7.94944 0.624582 7.75042C0.624582 7.55139 0.703644 7.36052 0.844374 7.21979C0.985105 7.07906 1.17598 7 1.375 7C1.57402 7 1.76489 7.07906 1.90562 7.21979L6.625 11.9401L18.0944 0.469792C18.2351 0.329061 18.426 0.25 18.625 0.25C18.824 0.25 19.0149 0.329061 19.1556 0.469792C19.2964 0.610522 19.3754 0.801394 19.3754 1.00042C19.3754 1.19944 19.2964 1.39031 19.1556 1.53104Z" fill="black"/>
</svg>
