<svg width="20" height="14" viewBox="0 0 20 14" fill="none" xmlns="http://www.w3.org/2000/svg">
<path id="Vector" d="M19.1557 1.53104L7.15568 13.531C7.08602 13.6008 7.0033 13.6561 6.91226 13.6938C6.82121 13.7316 6.72361 13.751 6.62505 13.751C6.52649 13.751 6.42889 13.7316 6.33785 13.6938C6.2468 13.6561 6.16408 13.6008 6.09443 13.531L0.844426 8.28104C0.703695 8.14031 0.624634 7.94944 0.624634 7.75042C0.624634 7.55139 0.703695 7.36052 0.844426 7.21979C0.985156 7.07906 1.17603 7 1.37505 7C1.57407 7 1.76495 7.07906 1.90568 7.21979L6.62505 11.9401L18.0944 0.469792C18.2352 0.329061 18.426 0.25 18.6251 0.25C18.8241 0.25 19.0149 0.329061 19.1557 0.469792C19.2964 0.610522 19.3755 0.801394 19.3755 1.00042C19.3755 1.19944 19.2964 1.39031 19.1557 1.53104Z" fill="black"/>
</svg>
