<svg xmlns="http://www.w3.org/2000/svg" width="25" height="24" viewBox="0 0 25 24" fill="none">
  <path d="M22.0969 6.87821L17.9072 2.68946C17.7679 2.55014 17.6025 2.43962 17.4205 2.36421C17.2385 2.28881 17.0434 2.25 16.8464 2.25C16.6494 2.25 16.4543 2.28881 16.2723 2.36421C16.0903 2.43962 15.9249 2.55014 15.7857 2.68946L4.22534 14.2498C4.08545 14.3886 3.97453 14.5538 3.89905 14.7358C3.82357 14.9178 3.78502 15.113 3.78565 15.3101V19.4998C3.78565 19.8976 3.94369 20.2791 4.22499 20.5604C4.5063 20.8417 4.88783 20.9998 5.28565 20.9998H21.0357C21.2346 20.9998 21.4253 20.9208 21.566 20.7801C21.7066 20.6395 21.7857 20.4487 21.7857 20.2498C21.7857 20.0509 21.7066 19.8601 21.566 19.7194C21.4253 19.5788 21.2346 19.4998 21.0357 19.4998H11.5969L22.0969 8.99977C22.2362 8.86048 22.3467 8.69511 22.4221 8.5131C22.4976 8.33109 22.5364 8.136 22.5364 7.93899C22.5364 7.74198 22.4976 7.5469 22.4221 7.36489C22.3467 7.18288 22.2362 7.0175 22.0969 6.87821ZM9.47534 19.4998H5.28565V15.3101L13.5357 7.06009L17.7253 11.2498L9.47534 19.4998ZM18.7857 10.1895L14.5969 5.99977L16.8469 3.74977L21.0357 7.93946L18.7857 10.1895Z" fill="white"/>
</svg>