<svg width="429" height="86" viewBox="0 0 429 86" fill="none" xmlns="http://www.w3.org/2000/svg">
<line x1="4.90861" y1="0.130127" x2="4.90862" y2="85.2127" stroke="#121212" stroke-width="9.81722"/>
<line x1="19.6347" y1="0.130127" x2="19.6347" y2="85.2127" stroke="#121212" stroke-width="6.54482"/>
<line x1="34.3598" y1="0.130127" x2="34.3598" y2="85.2127" stroke="#121212" stroke-width="3.27241"/>
<line x1="50.7221" y1="0.130127" x2="50.7221" y2="85.2127" stroke="#121212" stroke-width="3.27241"/>
<line x1="70.3569" y1="0.130127" x2="70.3569" y2="85.2127" stroke="#121212" stroke-width="9.81722"/>
<line x1="83.4468" y1="0.130127" x2="83.4468" y2="85.2127" stroke="#121212" stroke-width="3.27241"/>
<line x1="103.08" y1="0.130127" x2="103.08" y2="85.2127" stroke="#121212" stroke-width="9.81722"/>
<line x1="116.17" y1="0.130127" x2="116.17" y2="85.2127" stroke="#121212" stroke-width="3.27241"/>
<line x1="135.805" y1="0.130127" x2="135.805" y2="85.2127" stroke="#121212" stroke-width="9.81722"/>
<line x1="150.531" y1="0.130127" x2="150.531" y2="85.2127" stroke="#121212" stroke-width="6.54482"/>
<line x1="165.256" y1="0.130127" x2="165.256" y2="85.2127" stroke="#121212" stroke-width="3.27241"/>
<line x1="181.619" y1="0.130127" x2="181.619" y2="85.2127" stroke="#121212" stroke-width="3.27241"/>
<line x1="201.253" y1="0.130127" x2="201.253" y2="85.2127" stroke="#121212" stroke-width="9.81722"/>
<line x1="214.343" y1="0.130127" x2="214.343" y2="85.2127" stroke="#121212" stroke-width="3.27241"/>
<line x1="233.977" y1="0.130127" x2="233.977" y2="85.2127" stroke="#121212" stroke-width="9.81722"/>
<line x1="247.067" y1="0.130127" x2="247.067" y2="85.2127" stroke="#121212" stroke-width="3.27241"/>
<line x1="266.702" y1="0.130127" x2="266.702" y2="85.2127" stroke="#121212" stroke-width="9.81722"/>
<line x1="281.427" y1="0.130127" x2="281.427" y2="85.2127" stroke="#121212" stroke-width="6.54482"/>
<line x1="296.153" y1="0.130127" x2="296.153" y2="85.2127" stroke="#121212" stroke-width="3.27241"/>
<line x1="312.515" y1="0.130127" x2="312.515" y2="85.2127" stroke="#121212" stroke-width="3.27241"/>
<line x1="332.15" y1="0.130127" x2="332.15" y2="85.2127" stroke="#121212" stroke-width="9.81722"/>
<line x1="346.875" y1="0.130127" x2="346.875" y2="85.2127" stroke="#121212" stroke-width="6.54482"/>
<line x1="361.601" y1="0.130127" x2="361.601" y2="85.2127" stroke="#121212" stroke-width="3.27241"/>
<line x1="377.963" y1="0.130127" x2="377.963" y2="85.2127" stroke="#121212" stroke-width="3.27241"/>
<line x1="395.962" y1="0.130127" x2="395.962" y2="85.2127" stroke="#121212" stroke-width="6.54482"/>
<line x1="413.959" y1="0.130127" x2="413.959" y2="85.2127" stroke="#121212" stroke-width="9.81722"/>
<line x1="427.049" y1="0.130127" x2="427.049" y2="85.2127" stroke="#121212" stroke-width="3.27241"/>
</svg>
