<svg width="106" height="26" viewBox="0 0 106 26" fill="none" xmlns="http://www.w3.org/2000/svg">
<line x1="1.5" y1="-5.27659e-08" x2="1.5" y2="26" stroke="#121212" stroke-width="3"/>
<line x1="5" y1="-3.51773e-08" x2="5" y2="26" stroke="#121212" stroke-width="2"/>
<line x1="8.5" y1="-1.75886e-08" x2="8.5" y2="26" stroke="#121212"/>
<line x1="12.5" y1="-1.75886e-08" x2="12.5" y2="26" stroke="#121212"/>
<line x1="17.5" y1="-5.27659e-08" x2="17.5" y2="26" stroke="#121212" stroke-width="3"/>
<line x1="20.5" y1="-1.75886e-08" x2="20.5" y2="26" stroke="#121212"/>
<line x1="25.5" y1="-5.27659e-08" x2="25.5" y2="26" stroke="#121212" stroke-width="3"/>
<line x1="28.5" y1="-1.75886e-08" x2="28.5" y2="26" stroke="#121212"/>
<line x1="33.5" y1="-5.27659e-08" x2="33.5" y2="26" stroke="#121212" stroke-width="3"/>
<line x1="37" y1="-3.51773e-08" x2="37" y2="26" stroke="#121212" stroke-width="2"/>
<line x1="40.5" y1="-1.75886e-08" x2="40.5" y2="26" stroke="#121212"/>
<line x1="44.5" y1="-1.75886e-08" x2="44.5" y2="26" stroke="#121212"/>
<line x1="49.5" y1="-5.27659e-08" x2="49.5" y2="26" stroke="#121212" stroke-width="3"/>
<line x1="52.5" y1="-1.75886e-08" x2="52.5" y2="26" stroke="#121212"/>
<line x1="57.5" y1="-5.27659e-08" x2="57.5" y2="26" stroke="#121212" stroke-width="3"/>
<line x1="60.5" y1="-1.75886e-08" x2="60.5" y2="26" stroke="#121212"/>
<line x1="65.5" y1="-5.27659e-08" x2="65.5" y2="26" stroke="#121212" stroke-width="3"/>
<line x1="69" y1="-3.51773e-08" x2="69" y2="26" stroke="#121212" stroke-width="2"/>
<line x1="72.5" y1="-1.75886e-08" x2="72.5" y2="26" stroke="#121212"/>
<line x1="76.5" y1="-1.75886e-08" x2="76.5" y2="26" stroke="#121212"/>
<line x1="81.5" y1="-5.27659e-08" x2="81.5" y2="26" stroke="#121212" stroke-width="3"/>
<line x1="85" y1="-3.51773e-08" x2="85" y2="26" stroke="#121212" stroke-width="2"/>
<line x1="88.5" y1="-1.75886e-08" x2="88.5" y2="26" stroke="#121212"/>
<line x1="92.5" y1="-1.75886e-08" x2="92.5" y2="26" stroke="#121212"/>
<line x1="97" y1="-3.51773e-08" x2="97" y2="26" stroke="#121212" stroke-width="2"/>
<line x1="101.5" y1="-5.27659e-08" x2="101.5" y2="26" stroke="#121212" stroke-width="3"/>
<line x1="104.5" y1="-1.75886e-08" x2="104.5" y2="26" stroke="#121212"/>
</svg>
