<svg width="106" height="26" viewBox="0 0 106 26" fill="none" xmlns="http://www.w3.org/2000/svg">
<g clip-path="url(#clip0_213_859)">
<path d="M47.9625 25.2087C47.5693 25.2087 47.1758 25.0586 46.8761 24.7574L42.2464 20.1118C41.648 19.5103 41.648 18.5333 42.2486 17.9336C42.8486 17.3314 43.8209 17.3314 44.4209 17.9336L49.0504 22.5785C49.6489 23.1806 49.6489 24.1576 49.0486 24.7574C48.7483 25.0586 48.3557 25.2087 47.9625 25.2087Z" fill="#E51236"/>
<path d="M93.0913 25.9147C86.0474 25.9147 80.3154 20.1035 80.3154 12.9592C80.3154 10.5569 80.9678 8.21157 82.2031 6.17653C82.6441 5.44853 83.5883 5.21835 84.3158 5.6602C85.0391 6.10312 85.2706 7.0512 84.8294 7.77782C83.8865 9.33094 83.3888 11.1213 83.3888 12.9592C83.3888 18.4028 87.74 22.833 93.0913 22.833C98.4425 22.833 102.798 18.4028 102.798 12.9592C102.798 7.51553 98.4422 3.08161 93.0913 3.08161C91.5276 3.08299 90.0365 3.44882 88.6589 4.17117C87.9053 4.56698 86.978 4.27149 86.5862 3.5178C86.1927 2.7638 86.4843 1.83285 87.2359 1.43811C89.0305 0.499047 91.0561 0.00137647 93.09 0C100.138 0 105.871 5.81253 105.871 12.9592C105.871 20.1058 100.138 25.9147 93.0913 25.9147Z" fill="#E51236"/>
<path d="M41.7311 0.746094H30.7829C30.1446 0.746094 29.5983 1.13487 29.3658 1.68929C29.2824 1.87985 29.2344 2.08908 29.2344 2.30977V23.6243C29.2344 24.476 29.9215 25.1655 30.771 25.1655C31.6205 25.1655 32.3075 24.476 32.3075 23.6243V3.82848H41.7311C44.3073 3.82848 46.4041 5.92989 46.4041 8.51521C46.4041 11.1005 44.3073 13.2025 41.7311 13.2025H36.3501C35.5006 13.2025 34.8133 13.8919 34.8133 14.7436C34.8133 15.5953 35.5006 16.2846 36.3501 16.2846H41.7311C46.0014 16.2846 49.4773 12.7989 49.4773 8.51521C49.4773 4.23148 46.0014 0.746094 41.7311 0.746094Z" fill="#E51236"/>
<path d="M74.0483 12.8218H67.8239C66.9759 12.8218 66.2871 13.5109 66.2871 14.363C66.2871 15.215 66.9759 15.9035 67.8239 15.9035H72.5111V23.6893C72.5111 24.5406 73.1983 25.2307 74.0481 25.2307C74.898 25.2307 75.5849 24.5406 75.5849 23.6893V14.363C75.5849 13.5109 74.896 12.8218 74.0483 12.8218Z" fill="#E51236"/>
<path d="M66.4468 25.9856C59.3997 25.9856 53.668 20.1729 53.668 13.0261C53.668 5.87933 59.3996 0.0703125 66.4468 0.0703125C69.2213 0.0703125 71.8612 0.957983 74.082 2.63881C74.7585 3.15101 74.8919 4.11837 74.3827 4.79681C73.8717 5.47572 72.9084 5.61214 72.2299 5.09826C70.5465 3.82533 68.5475 3.15208 66.447 3.15208C61.0958 3.15208 56.7406 7.58202 56.7406 13.0261C56.7406 18.4702 61.0958 22.9041 66.447 22.9041C67.1237 22.9041 67.8065 22.8316 68.4726 22.6886C69.3073 22.5033 70.1202 23.0402 70.2975 23.873C70.4747 24.7053 69.9465 25.5234 69.1148 25.7017C68.2388 25.8905 67.3397 25.9856 66.447 25.9856" fill="#E51236"/>
<path d="M12.4681 25.1636C11.6195 25.1636 10.9316 24.4741 10.9316 23.6226V14.4192C10.9316 13.5684 11.6195 12.8789 12.4681 12.8789C13.3167 12.8789 14.0052 13.5684 14.0052 14.4192V23.6226C14.0052 24.4741 13.3169 25.1636 12.4681 25.1636Z" fill="#E51236"/>
<path d="M15.6786 10.4231C15.2383 10.4231 14.801 10.2336 14.4975 9.86853C13.9538 9.21318 14.0435 8.24292 14.6953 7.69799L22.5718 1.12565C23.2235 0.580875 24.1919 0.668969 24.7348 1.32463C25.2784 1.9786 25.1893 2.94917 24.537 3.49318L16.6611 10.067C16.3738 10.3059 16.0256 10.4231 15.6786 10.4231Z" fill="#E51236"/>
<path d="M9.41722 10.423C9.0704 10.423 8.7225 10.3059 8.43531 10.067L0.553943 3.49313C-0.0982236 2.95064 -0.187447 1.9784 0.355059 1.32457C0.897413 0.670592 1.86713 0.580816 2.51945 1.12559L10.4008 7.69794C11.0525 8.24134 11.1422 9.21313 10.5997 9.86848C10.2956 10.2336 9.8577 10.423 9.41722 10.423Z" fill="#E51236"/>
</g>
<defs>
<clipPath id="clip0_213_859">
<rect width="106" height="26" fill="white"/>
</clipPath>
</defs>
</svg>
