<svg width="283" height="70" viewBox="0 0 283 70" fill="none" xmlns="http://www.w3.org/2000/svg">
<g clip-path="url(#clip0_213_1574)">
<path d="M127.638 67.0717C126.592 67.0717 125.544 66.6731 124.747 65.8739L112.426 53.5453C110.834 51.9489 110.834 49.3562 112.432 47.7647C114.029 46.1663 116.616 46.1663 118.213 47.7647L130.533 60.0913C132.126 61.6893 132.126 64.2821 130.528 65.8739C129.729 66.6731 128.684 67.0717 127.638 67.0717Z" fill="#E51236"/>
<path d="M247.735 68.9449C228.989 68.9449 213.735 53.523 213.735 34.563C213.735 28.1878 215.471 21.9636 218.759 16.5629C219.932 14.6309 222.445 14.0201 224.381 15.1927C226.306 16.3681 226.922 18.8842 225.748 20.8125C223.239 24.9343 221.914 29.6855 221.914 34.563C221.914 49.0096 233.494 60.7668 247.735 60.7668C261.975 60.7668 273.565 49.0096 273.565 34.563C273.565 20.1164 261.974 8.34951 247.735 8.34951C243.573 8.35316 239.605 9.32403 235.939 11.241C233.934 12.2914 231.466 11.5073 230.423 9.50709C229.376 7.50609 230.152 5.03548 232.152 3.9879C236.928 1.49578 242.318 0.17504 247.731 0.171387C266.487 0.171387 281.743 15.5969 281.743 34.563C281.743 53.5291 266.487 68.9449 247.735 68.9449Z" fill="#E51236"/>
<path d="M111.056 2.15088H81.9207C80.2221 2.15088 78.7682 3.18263 78.1497 4.65398C77.9277 5.15971 77.7998 5.71495 77.7998 6.30064V62.866C77.7998 65.1264 79.6283 66.9561 81.8891 66.9561C84.1498 66.9561 85.9779 65.1264 85.9779 62.866V10.3311H111.056C117.912 10.3311 123.492 15.9079 123.492 22.7689C123.492 29.6299 117.912 35.2084 111.056 35.2084H96.7362C94.4755 35.2084 92.6466 37.0377 92.6466 39.2981C92.6466 41.5584 94.4755 43.3877 96.7362 43.3877H111.056C122.42 43.3877 131.671 34.1373 131.671 22.7689C131.671 11.4006 122.42 2.15088 111.056 2.15088Z" fill="#E51236"/>
<path d="M197.058 34.1985H180.494C178.237 34.1985 176.404 36.0274 176.404 38.2886C176.404 40.5497 178.237 42.377 180.494 42.377H192.968V63.0393C192.968 65.2984 194.796 67.1298 197.058 67.1298C199.32 67.1298 201.148 65.2984 201.148 63.0393V38.2886C201.148 36.0274 199.314 34.1985 197.058 34.1985Z" fill="#E51236"/>
<path d="M176.829 69.1333C158.075 69.1333 142.821 53.7073 142.821 34.7409C142.821 15.7744 158.074 0.358154 176.829 0.358154C184.212 0.358154 191.237 2.7139 197.147 7.17456C198.948 8.53386 199.303 11.1011 197.947 12.9016C196.588 14.7033 194.024 15.0653 192.218 13.7016C187.739 10.3234 182.419 8.5367 176.829 8.5367C162.588 8.5367 150.998 20.2931 150.998 34.7409C150.998 49.1887 162.588 60.9556 176.829 60.9556C178.63 60.9556 180.447 60.7632 182.219 60.3837C184.441 59.8918 186.604 61.3168 187.076 63.5269C187.548 65.7357 186.142 67.9067 183.929 68.38C181.597 68.8809 179.205 69.1333 176.829 69.1333" fill="#E51236"/>
<path d="M33.1816 66.952C30.9233 66.952 29.0928 65.1223 29.0928 62.8624V38.438C29.0928 36.1801 30.9233 34.3503 33.1816 34.3503C35.44 34.3503 37.2721 36.1801 37.2721 38.438V62.8624C37.2721 65.1223 35.4404 66.952 33.1816 66.952Z" fill="#E51236"/>
<path d="M41.7251 27.8326C40.5533 27.8326 39.3896 27.3297 38.5819 26.3609C37.1349 24.6217 37.3736 22.0468 39.1083 20.6006L60.0693 3.15862C61.8037 1.71287 64.3806 1.94665 65.8256 3.68667C67.2721 5.42222 67.0351 7.99795 65.2991 9.44167L44.3398 26.8877C43.5751 27.5217 42.6485 27.8326 41.7251 27.8326Z" fill="#E51236"/>
<path d="M25.0612 27.8326C24.1382 27.8326 23.2124 27.5217 22.4481 26.8877L1.47416 9.4417C-0.261394 8.00204 -0.498836 5.42184 0.944887 3.68668C2.3882 1.95113 4.96881 1.71288 6.70477 3.15863L27.6787 20.6006C29.4131 22.0427 29.6517 24.6217 28.208 26.3609C27.3987 27.3298 26.2334 27.8326 25.0612 27.8326Z" fill="#E51236"/>
</g>
<defs>
<clipPath id="clip0_213_1574">
<rect width="282.088" height="69" fill="white" transform="translate(0 0.171387)"/>
</clipPath>
</defs>
</svg>
