<svg width="252" height="50" viewBox="0 0 252 50" fill="none" xmlns="http://www.w3.org/2000/svg">
<g clip-path="url(#clip0_1019_2120)">
<path d="M47.9621 49.2092C47.569 49.2092 47.1755 49.0591 46.8758 48.7579L42.2461 44.1123C41.6476 43.5108 41.6476 42.5338 42.2482 41.9341C42.8482 41.3319 43.8205 41.3319 44.4205 41.9341L49.0501 46.579C49.6485 47.1811 49.6485 48.1581 49.0482 48.7579C48.7479 49.0591 48.3553 49.2092 47.9621 49.2092Z" fill="#E51236"/>
<path d="M93.091 49.9147C86.0471 49.9147 80.3152 44.1035 80.3152 36.9592C80.3152 34.5569 80.9675 32.2116 82.2029 30.1765C82.6438 29.4485 83.5881 29.2184 84.3156 29.6602C85.0388 30.1031 85.2703 31.0512 84.8291 31.7778C83.8862 33.3309 83.3886 35.1213 83.3886 36.9592C83.3886 42.4028 87.7398 46.833 93.091 46.833C98.4423 46.833 102.797 42.4028 102.797 36.9592C102.797 31.5155 98.442 27.0816 93.091 27.0816C91.5274 27.083 90.0362 27.4488 88.6587 28.1712C87.9051 28.567 86.9778 28.2715 86.586 27.5178C86.1925 26.7638 86.4841 25.8328 87.2357 25.4381C89.0302 24.499 91.0558 24.0014 93.0898 24C100.138 24 105.87 29.8125 105.87 36.9592C105.87 44.1058 100.138 49.9147 93.091 49.9147Z" fill="#E51236"/>
<path d="M41.7315 24.7461H30.7833C30.145 24.7461 29.5987 25.1349 29.3663 25.6893C29.2828 25.8799 29.2348 26.0891 29.2348 26.3098V47.6243C29.2348 48.476 29.9219 49.1655 30.7714 49.1655C31.6209 49.1655 32.3079 48.476 32.3079 47.6243V27.8285H41.7315C44.3077 27.8285 46.4045 29.9299 46.4045 32.5152C46.4045 35.1005 44.3077 37.2025 41.7315 37.2025H36.3505C35.501 37.2025 34.8138 37.8919 34.8138 38.7436C34.8138 39.5953 35.501 40.2846 36.3505 40.2846H41.7315C46.0019 40.2846 49.4778 36.7989 49.4778 32.5152C49.4778 28.2315 46.0019 24.7461 41.7315 24.7461Z" fill="#E51236"/>
<path d="M74.0485 36.8223H67.8241C66.9761 36.8223 66.2874 37.5114 66.2874 38.3635C66.2874 39.2155 66.9761 39.904 67.8241 39.904H72.5113V47.6898C72.5113 48.5411 73.1986 49.2311 74.0484 49.2311C74.8982 49.2311 75.5852 48.5411 75.5852 47.6898V38.3635C75.5852 37.5114 74.8962 36.8223 74.0485 36.8223Z" fill="#E51236"/>
<path d="M66.4466 49.9856C59.3995 49.9856 53.6677 44.1729 53.6677 37.0261C53.6677 29.8793 59.3994 24.0703 66.4466 24.0703C69.2211 24.0703 71.861 24.958 74.0818 26.6388C74.7582 27.151 74.8917 28.1184 74.3824 28.7968C73.8715 29.4757 72.9082 29.6121 72.2296 29.0983C70.5463 27.8253 68.5472 27.1521 66.4468 27.1521C61.0955 27.1521 56.7404 31.582 56.7404 37.0261C56.7404 42.4702 61.0955 46.9041 66.4468 46.9041C67.1235 46.9041 67.8063 46.8316 68.4723 46.6886C69.3071 46.5033 70.12 47.0402 70.2972 47.873C70.4744 48.7053 69.9463 49.5234 69.1146 49.7017C68.2385 49.8905 67.3394 49.9856 66.4468 49.9856" fill="#E51236"/>
<path d="M12.4685 49.1636C11.6199 49.1636 10.932 48.4741 10.932 47.6226V38.4192C10.932 37.5684 11.6199 36.8789 12.4685 36.8789C13.3171 36.8789 14.0055 37.5684 14.0055 38.4192V47.6226C14.0055 48.4741 13.3172 49.1636 12.4685 49.1636Z" fill="#E51236"/>
<path d="M15.6789 34.4231C15.2385 34.4231 14.8013 34.2336 14.4977 33.8685C13.954 33.2132 14.0437 32.2429 14.6956 31.698L22.5721 25.1257C23.2238 24.5809 24.1921 24.669 24.7351 25.3246C25.2787 25.9786 25.1896 26.9492 24.5373 27.4932L16.6614 34.067C16.374 34.3059 16.0258 34.4231 15.6789 34.4231Z" fill="#E51236"/>
<path d="M9.41722 34.4235C9.0704 34.4235 8.7225 34.3064 8.43531 34.0675L0.553943 27.4936C-0.0982236 26.9511 -0.187447 25.9789 0.355059 25.3251C0.897413 24.6711 1.86713 24.5813 2.51945 25.1261L10.4008 31.6984C11.0525 32.2418 11.1422 33.2136 10.5997 33.869C10.2956 34.234 9.8577 34.4235 9.41722 34.4235Z" fill="#E51236"/>
</g>
<line x1="147.5" y1="24" x2="147.5" y2="50" stroke="#121212" stroke-width="3"/>
<line x1="151" y1="24" x2="151" y2="50" stroke="#121212" stroke-width="2"/>
<line x1="154.5" y1="24" x2="154.5" y2="50" stroke="#121212"/>
<line x1="158.5" y1="24" x2="158.5" y2="50" stroke="#121212"/>
<line x1="163.5" y1="24" x2="163.5" y2="50" stroke="#121212" stroke-width="3"/>
<line x1="166.5" y1="24" x2="166.5" y2="50" stroke="#121212"/>
<line x1="171.5" y1="24" x2="171.5" y2="50" stroke="#121212" stroke-width="3"/>
<line x1="174.5" y1="24" x2="174.5" y2="50" stroke="#121212"/>
<line x1="179.5" y1="24" x2="179.5" y2="50" stroke="#121212" stroke-width="3"/>
<line x1="183" y1="24" x2="183" y2="50" stroke="#121212" stroke-width="2"/>
<line x1="186.5" y1="24" x2="186.5" y2="50" stroke="#121212"/>
<line x1="190.5" y1="24" x2="190.5" y2="50" stroke="#121212"/>
<line x1="195.5" y1="24" x2="195.5" y2="50" stroke="#121212" stroke-width="3"/>
<line x1="198.5" y1="24" x2="198.5" y2="50" stroke="#121212"/>
<line x1="203.5" y1="24" x2="203.5" y2="50" stroke="#121212" stroke-width="3"/>
<line x1="206.5" y1="24" x2="206.5" y2="50" stroke="#121212"/>
<line x1="211.5" y1="24" x2="211.5" y2="50" stroke="#121212" stroke-width="3"/>
<line x1="215" y1="24" x2="215" y2="50" stroke="#121212" stroke-width="2"/>
<line x1="218.5" y1="24" x2="218.5" y2="50" stroke="#121212"/>
<line x1="222.5" y1="24" x2="222.5" y2="50" stroke="#121212"/>
<line x1="227.5" y1="24" x2="227.5" y2="50" stroke="#121212" stroke-width="3"/>
<line x1="231" y1="24" x2="231" y2="50" stroke="#121212" stroke-width="2"/>
<line x1="234.5" y1="24" x2="234.5" y2="50" stroke="#121212"/>
<line x1="238.5" y1="24" x2="238.5" y2="50" stroke="#121212"/>
<line x1="243" y1="24" x2="243" y2="50" stroke="#121212" stroke-width="2"/>
<line x1="247.5" y1="24" x2="247.5" y2="50" stroke="#121212" stroke-width="3"/>
<line x1="250.5" y1="24" x2="250.5" y2="50" stroke="#121212"/>
<defs>
<clipPath id="clip0_1019_2120">
<rect width="106" height="26" fill="white" transform="translate(0 24)"/>
</clipPath>
</defs>
</svg>
