<svg width="151" height="111" viewBox="0 0 151 111" fill="none" xmlns="http://www.w3.org/2000/svg">
<path d="M106.962 79.0375L95.4999 67.5687V105.5C95.4999 106.826 94.9731 108.098 94.0355 109.036C93.0978 109.973 91.826 110.5 90.4999 110.5C89.1738 110.5 87.9021 109.973 86.9644 109.036C86.0267 108.098 85.4999 106.826 85.4999 105.5V67.5687L74.0374 79.0375C73.5729 79.5021 73.0214 79.8706 72.4144 80.122C71.8074 80.3734 71.1569 80.5028 70.4999 80.5028C69.8429 80.5028 69.1924 80.3734 68.5854 80.122C67.9785 79.8706 67.427 79.5021 66.9624 79.0375C66.4979 78.573 66.1294 78.0214 65.8779 77.4145C65.6265 76.8075 65.4971 76.157 65.4971 75.5C65.4971 74.843 65.6265 74.1925 65.8779 73.5855C66.1294 72.9786 66.4979 72.427 66.9624 71.9625L86.9624 51.9625C87.4268 51.4976 87.9782 51.1288 88.5852 50.8772C89.1922 50.6256 89.8428 50.4961 90.4999 50.4961C91.157 50.4961 91.8076 50.6256 92.4146 50.8772C93.0216 51.1288 93.5731 51.4976 94.0374 51.9625L114.037 71.9625C114.502 72.427 114.87 72.9786 115.122 73.5855C115.373 74.1925 115.503 74.843 115.503 75.5C115.503 76.157 115.373 76.8075 115.122 77.4145C114.87 78.0214 114.502 78.573 114.037 79.0375C113.573 79.5021 113.021 79.8706 112.414 80.122C111.807 80.3734 111.157 80.5028 110.5 80.5028C109.843 80.5028 109.192 80.3734 108.585 80.122C107.978 79.8706 107.427 79.5021 106.962 79.0375ZM95.4999 0.500001C85.2847 0.507707 75.273 3.3576 66.5851 8.73085C57.8972 14.1041 50.8757 21.7887 46.3062 30.925C40.8657 30.1255 35.3188 30.4564 30.0119 31.897C24.7051 33.3375 19.7522 35.8568 15.4627 39.2974C11.1732 42.7381 7.63923 47.0263 5.08142 51.8941C2.52361 56.7619 0.996951 62.1048 0.596783 67.5891C0.196615 73.0734 0.931536 78.5814 2.75565 83.7689C4.57976 88.9565 7.45388 93.7122 11.1985 97.739C14.9431 101.766 19.4778 104.977 24.5194 107.173C29.5609 109.369 35.001 110.501 40.4999 110.5H65.4999C66.826 110.5 68.0978 109.973 69.0354 109.036C69.9731 108.098 70.4999 106.826 70.4999 105.5C70.4999 104.174 69.9731 102.902 69.0354 101.964C68.0978 101.027 66.826 100.5 65.4999 100.5H40.4999C32.5434 100.5 24.9128 97.3393 19.2867 91.7132C13.6606 86.0871 10.4999 78.4565 10.4999 70.5C10.4999 62.5435 13.6606 54.9129 19.2867 49.2868C24.9128 43.6607 32.5434 40.5 40.4999 40.5C41.1874 40.5 41.8749 40.5 42.5562 40.575C41.1894 45.4321 40.4975 50.4542 40.4999 55.5C40.4999 56.8261 41.0267 58.0979 41.9644 59.0355C42.9021 59.9732 44.1738 60.5 45.4999 60.5C46.826 60.5 48.0978 59.9732 49.0354 59.0355C49.9731 58.0979 50.4999 56.8261 50.4999 55.5C50.5011 47.3872 52.6955 39.4257 56.8509 32.4579C61.0062 25.4901 66.9679 19.7753 74.1051 15.9182C81.2423 12.061 89.2894 10.2051 97.395 10.5467C105.501 10.8884 113.363 13.4149 120.15 17.859C126.938 22.303 132.397 28.4993 135.951 35.792C139.506 43.0848 141.022 51.2027 140.341 59.2868C139.659 67.3709 136.805 75.1204 132.08 81.7152C127.355 88.3101 120.935 93.5049 113.5 96.75C112.444 97.2077 111.578 98.0155 111.049 99.0373C110.52 100.059 110.359 101.232 110.594 102.359C110.829 103.485 111.445 104.496 112.339 105.221C113.233 105.946 114.349 106.34 115.5 106.337C116.189 106.337 116.87 106.192 117.5 105.913C129.083 100.86 138.573 91.9721 144.374 80.7445C150.174 69.5169 151.931 56.6343 149.349 44.2634C146.768 31.8925 140.004 20.7881 130.197 12.8179C120.39 4.84763 108.137 0.497806 95.4999 0.500001Z" fill="#121212"/>
</svg>
