<svg width="100" height="74" viewBox="0 0 100 74" fill="none" xmlns="http://www.w3.org/2000/svg">
<g id="mobile/signup/uploadimg">
<path id="Vector" d="M70.8795 52.6203L63.2726 45.0093V70.1818C63.2726 71.0619 62.923 71.9059 62.3007 72.5281C61.6784 73.1504 60.8344 73.5 59.9544 73.5C59.0744 73.5 58.2304 73.1504 57.6081 72.5281C56.9858 71.9059 56.6362 71.0619 56.6362 70.1818V45.0093L49.0293 52.6203C48.721 52.9286 48.355 53.1732 47.9522 53.34C47.5494 53.5069 47.1177 53.5928 46.6817 53.5928C46.2457 53.5928 45.8139 53.5069 45.4111 53.34C45.0083 53.1732 44.6423 52.9286 44.3341 52.6203C44.0258 52.312 43.7812 51.9461 43.6144 51.5432C43.4475 51.1404 43.3616 50.7087 43.3616 50.2727C43.3616 49.8367 43.4475 49.405 43.6144 49.0022C43.7812 48.5994 44.0258 48.2334 44.3341 47.9251L57.6068 34.6524C57.9149 34.3439 58.2809 34.0991 58.6837 33.9321C59.0866 33.7652 59.5183 33.6792 59.9544 33.6792C60.3905 33.6792 60.8222 33.7652 61.2251 33.9321C61.6279 34.0991 61.9938 34.3439 62.302 34.6524L75.5747 47.9251C75.883 48.2334 76.1276 48.5994 76.2944 49.0022C76.4613 49.405 76.5471 49.8367 76.5471 50.2727C76.5471 50.7087 76.4613 51.1404 76.2944 51.5432C76.1276 51.9461 75.883 52.312 75.5747 52.6203C75.2664 52.9286 74.9004 53.1732 74.4976 53.34C74.0948 53.5069 73.6631 53.5928 73.2271 53.5928C72.7911 53.5928 72.3594 53.5069 71.9566 53.34C71.5538 53.1732 71.1878 52.9286 70.8795 52.6203ZM63.2726 0.500001C56.4934 0.505115 49.8493 2.39641 44.0836 5.96229C38.318 9.52817 33.6583 14.628 30.6258 20.6911C27.0153 20.1606 23.3342 20.3802 19.8124 21.3362C16.2906 22.2922 13.0037 23.964 10.157 26.2474C7.31033 28.5307 4.96504 31.3765 3.26758 34.607C1.57013 37.8374 0.556982 41.3832 0.291416 45.0228C0.0258506 48.6624 0.513571 52.3176 1.72412 55.7603C2.93466 59.2029 4.84203 62.359 7.3271 65.0314C9.81217 67.7038 12.8216 69.835 16.1673 71.2921C19.5131 72.7492 23.1233 73.5008 26.7726 73.5H43.3635C44.2435 73.5 45.0875 73.1504 45.7098 72.5281C46.3321 71.9059 46.6817 71.0619 46.6817 70.1818C46.6817 69.3018 46.3321 68.4578 45.7098 67.8355C45.0875 67.2132 44.2435 66.8636 43.3635 66.8636H26.7726C21.4924 66.8636 16.4284 64.7661 12.6947 61.0324C8.96105 57.2987 6.86349 52.2348 6.86349 46.9545C6.86349 41.6743 8.96105 36.6104 12.6947 32.8767C16.4284 29.143 21.4924 27.0455 26.7726 27.0455C27.2288 27.0455 27.6851 27.0455 28.1372 27.0952C27.2301 30.3186 26.771 33.6514 26.7726 37C26.7726 37.88 27.1222 38.724 27.7445 39.3463C28.3667 39.9686 29.2107 40.3182 30.0908 40.3182C30.9708 40.3182 31.8148 39.9686 32.4371 39.3463C33.0593 38.724 33.4089 37.88 33.4089 37C33.4098 31.6161 34.866 26.3325 37.6237 21.7084C40.3813 17.0844 44.3377 13.2918 49.0742 10.7321C53.8107 8.17232 59.1511 6.94065 64.5302 7.16738C69.9094 7.39412 75.1272 9.07082 79.6314 12.0201C84.1357 14.9693 87.759 19.0814 90.1177 23.9211C92.4764 28.7608 93.4829 34.1482 93.0307 39.5131C92.5784 44.878 90.6842 50.0208 87.5486 54.3974C84.4129 58.774 80.1525 62.2214 75.218 64.375C74.5174 64.6787 73.9429 65.2149 73.5916 65.8929C73.2402 66.571 73.1336 67.3495 73.2895 68.097C73.4455 68.8446 73.8545 69.5155 74.4476 69.9966C75.0407 70.4776 75.7816 70.7393 76.5453 70.7376C77.0026 70.7372 77.4547 70.6412 77.8726 70.4556C85.5597 67.1024 91.8576 61.2042 95.707 53.7532C99.5564 46.3021 100.722 37.7527 99.009 29.543C97.2956 21.3332 92.8073 13.9639 86.2989 8.67459C79.7906 3.38525 71.6592 0.498544 63.2726 0.500001Z" fill="#121212"/>
</g>
</svg>
