<svg width="99" height="24" viewBox="0 0 99 24" fill="none" xmlns="http://www.w3.org/2000/svg">
<g clip-path="url(#clip0_1019_2655)">
<path d="M44.7949 23.2701C44.4277 23.2701 44.0602 23.1315 43.7803 22.8535L39.4563 18.5653C38.8974 18.01 38.8974 17.1082 39.4583 16.5547C40.0187 15.9987 40.9268 15.9987 41.4872 16.5547L45.811 20.8422C46.3699 21.398 46.3699 22.2998 45.8093 22.8535C45.5288 23.1315 45.1621 23.2701 44.7949 23.2701Z" fill="#E51236"/>
<path d="M86.9436 23.9212C80.3649 23.9212 75.0115 18.5571 75.0115 11.9623C75.0115 9.74485 75.6207 7.57991 76.7745 5.70141C77.1863 5.02941 78.0682 4.81694 78.7477 5.2248C79.4232 5.63365 79.6394 6.5088 79.2273 7.17953C78.3467 8.61318 77.8819 10.2658 77.8819 11.9623C77.8819 16.9872 81.9458 21.0767 86.9436 21.0767C91.9415 21.0767 96.009 16.9872 96.009 11.9623C96.009 6.93741 91.9412 2.84456 86.9436 2.84456C85.4833 2.84584 84.0906 3.18353 82.804 3.85031C82.1002 4.21567 81.2341 3.94292 80.8682 3.2472C80.5006 2.5512 80.773 1.69186 81.475 1.32748C83.151 0.460659 85.0428 0.00127059 86.9425 0C93.5251 0 98.879 5.36541 98.879 11.9623C98.879 18.5592 93.5251 23.9212 86.9436 23.9212Z" fill="#E51236"/>
<path d="M38.9757 0.688477H28.7505C28.1543 0.688477 27.6441 1.04735 27.427 1.55912C27.3491 1.73502 27.3042 1.92815 27.3042 2.13187V21.8068C27.3042 22.593 27.9459 23.2294 28.7393 23.2294C29.5328 23.2294 30.1743 22.593 30.1743 21.8068V3.53375H38.9757C41.3817 3.53375 43.3401 5.47352 43.3401 7.85997C43.3401 10.2464 41.3817 12.1867 38.9757 12.1867H33.95C33.1566 12.1867 32.5147 12.823 32.5147 13.6092C32.5147 14.3954 33.1566 15.0317 33.95 15.0317H38.9757C42.964 15.0317 46.2103 11.8142 46.2103 7.85997C46.2103 3.90575 42.964 0.688477 38.9757 0.688477Z" fill="#E51236"/>
<path d="M69.1586 11.8359H63.3452C62.5532 11.8359 61.9099 12.4721 61.9099 13.2586C61.9099 14.0451 62.5532 14.6806 63.3452 14.6806H67.7229V21.8675C67.7229 22.6533 68.3647 23.2903 69.1584 23.2903C69.9521 23.2903 70.5937 22.6533 70.5937 21.8675V13.2586C70.5937 12.4721 69.9503 11.8359 69.1586 11.8359Z" fill="#E51236"/>
<path d="M62.0585 23.9862C55.4768 23.9862 50.1235 18.6207 50.1235 12.0237C50.1235 5.42662 55.4767 0.0644531 62.0585 0.0644531C64.6498 0.0644531 67.1154 0.883841 69.1895 2.43538C69.8213 2.90818 69.9459 3.80112 69.4703 4.42738C68.9931 5.05406 68.0934 5.17999 67.4596 4.70564C65.8875 3.53062 64.0204 2.90916 62.0587 2.90916C57.0608 2.90916 52.9933 6.99834 52.9933 12.0237C52.9933 17.049 57.0608 21.1418 62.0587 21.1418C62.6907 21.1418 63.3284 21.0749 63.9505 20.9429C64.7301 20.7718 65.4893 21.2675 65.6549 22.0362C65.8204 22.8045 65.3271 23.5596 64.5503 23.7242C63.7321 23.8984 62.8924 23.9862 62.0587 23.9862" fill="#E51236"/>
<path d="M11.6452 23.2284C10.8526 23.2284 10.2102 22.592 10.2102 21.8059V13.3105C10.2102 12.5251 10.8526 11.8887 11.6452 11.8887C12.4378 11.8887 13.0808 12.5251 13.0808 13.3105V21.8059C13.0808 22.592 12.4379 23.2284 11.6452 23.2284Z" fill="#E51236"/>
<path d="M14.6435 9.62087C14.2323 9.62087 13.8239 9.44595 13.5404 9.10896C13.0326 8.50402 13.1163 7.6084 13.7252 7.10539L21.0815 1.03861C21.6902 0.535742 22.5946 0.617059 23.1017 1.22228C23.6094 1.82595 23.5262 2.72186 22.9169 3.22402L15.5612 9.29221C15.2928 9.51273 14.9676 9.62087 14.6435 9.62087Z" fill="#E51236"/>
<path d="M8.79533 9.62135C8.47141 9.62135 8.14649 9.5132 7.87826 9.29269L0.517362 3.2245C-0.0917371 2.72375 -0.175069 1.82629 0.331612 1.22275C0.83815 0.619084 1.74382 0.536213 2.35307 1.03908L9.71396 7.10586C10.3226 7.60746 10.4064 8.5045 9.89971 9.10944C9.61568 9.44643 9.20671 9.62135 8.79533 9.62135Z" fill="#E51236"/>
</g>
<defs>
<clipPath id="clip0_1019_2655">
<rect width="99" height="24" fill="white"/>
</clipPath>
</defs>
</svg>
