<svg width="25" height="24" viewBox="0 0 25 24" fill="none" xmlns="http://www.w3.org/2000/svg">
<g clip-path="url(#clip0_914_204)">
<path fill-rule="evenodd" clip-rule="evenodd" d="M12.4356 24C11.5862 24 10.8974 23.3265 10.8974 22.4947V13.5047C10.8974 12.6735 11.5862 12 12.4356 12C13.2855 12 13.9743 12.6735 13.9743 13.5047V22.4947C13.9743 23.3265 13.2855 24 12.4356 24Z" fill="#E51236"/>
<path fill-rule="evenodd" clip-rule="evenodd" d="M15.6322 9.44709C15.1938 9.44709 14.7591 9.264 14.4567 8.91147C13.9157 8.27905 14.005 7.34248 14.6534 6.81634L22.4927 0.472416C23.1412 -0.0531411 24.1054 0.0318931 24.6457 0.664336C25.1867 1.2956 25.0981 2.23275 24.449 2.75772L16.6104 9.10339C16.3244 9.33429 15.9777 9.44709 15.6322 9.44709Z" fill="#E51236"/>
<mask id="mask0_914_204" style="mask-type:alpha" maskUnits="userSpaceOnUse" x="0" y="0" width="11" height="10">
<path fill-rule="evenodd" clip-rule="evenodd" d="M0 9.61451V0.117188H10.8711V9.61451H0Z" fill="white"/>
</mask>
<g mask="url(#mask0_914_204)">
<path fill-rule="evenodd" clip-rule="evenodd" d="M9.34523 9.61451C9.00139 9.61451 8.65569 9.49957 8.37116 9.26422L0.54981 2.79683C-0.0973775 2.2636 -0.186373 1.30666 0.352444 0.663296C0.890656 0.0205262 1.85326 -0.0679446 2.49984 0.467696L10.3212 6.93329C10.9683 7.46834 11.0573 8.42407 10.5185 9.06864C10.217 9.42796 9.78235 9.61451 9.34523 9.61451Z" fill="#E51236"/>
</g>
</g>
<defs>
<clipPath id="clip0_914_204">
<rect width="25" height="24" fill="white"/>
</clipPath>
</defs>
</svg>
