<svg width="91" height="23" viewBox="0 0 91 23" fill="none" xmlns="http://www.w3.org/2000/svg">
<path d="M41.2255 21.8425C40.8875 21.8425 40.5493 21.7153 40.2917 21.4604L36.3123 17.5273C35.7979 17.0181 35.7979 16.1909 36.3141 15.6832C36.8298 15.1733 37.6656 15.1733 38.1813 15.6832L42.1606 19.6156C42.675 20.1254 42.675 20.9525 42.159 21.4604C41.9009 21.7153 41.5634 21.8425 41.2255 21.8425Z" fill="#E51236"/>
<path d="M80.0157 22.4399C73.9611 22.4399 69.0343 17.5201 69.0343 11.4715C69.0343 9.43772 69.595 7.45209 70.6569 5.72919C71.0359 5.11285 71.8475 4.91797 72.4728 5.29205C73.0945 5.66703 73.2935 6.4697 72.9142 7.08488C72.1038 8.39978 71.676 9.91551 71.676 11.4715C71.676 16.0802 75.416 19.831 80.0157 19.831C84.6153 19.831 88.3587 16.0802 88.3587 11.4715C88.3587 6.86281 84.615 3.10896 80.0157 3.10896C78.6717 3.11013 77.3899 3.41985 76.2059 4.0314C75.5581 4.3665 74.7611 4.11634 74.4243 3.47825C74.0861 2.83989 74.3367 2.05173 74.9828 1.71753C76.5252 0.922504 78.2663 0.501165 80.0146 0.5C86.0727 0.5 91 5.42102 91 11.4715C91 17.522 86.0727 22.4399 80.0157 22.4399Z" fill="#E51236"/>
<path d="M35.87 1.13184H26.4596C25.9109 1.13184 25.4413 1.46098 25.2415 1.93036C25.1698 2.0917 25.1285 2.26883 25.1285 2.45567V20.501C25.1285 21.2221 25.7191 21.8058 26.4493 21.8058C27.1795 21.8058 27.77 21.2221 27.77 20.501V3.74144H35.87C38.0843 3.74144 39.8866 5.52055 39.8866 7.70933C39.8866 9.89812 38.0843 11.6777 35.87 11.6777H31.2448C30.5146 11.6777 29.9239 12.2613 29.9239 12.9824C29.9239 13.7035 30.5146 14.2871 31.2448 14.2871H35.87C39.5405 14.2871 42.5282 11.336 42.5282 7.70933C42.5282 4.08263 39.5405 1.13184 35.87 1.13184Z" fill="#E51236"/>
<path d="M63.6479 11.3555H58.2977C57.5688 11.3555 56.9768 11.9389 56.9768 12.6603C56.9768 13.3816 57.5688 13.9646 58.2977 13.9646H62.3266V20.5562C62.3266 21.2769 62.9173 21.8611 63.6477 21.8611C64.3782 21.8611 64.9687 21.2769 64.9687 20.5562V12.6603C64.9687 11.9389 64.3764 11.3555 63.6477 11.3555" fill="#E51236"/>
<path d="M57.1136 22.5C51.0563 22.5 46.1296 17.5789 46.1296 11.5282C46.1296 5.47761 51.0562 0.55957 57.1136 0.55957C59.4984 0.55957 61.7675 1.31109 63.6764 2.73411C64.2578 3.16775 64.3725 3.98674 63.9348 4.56113C63.4956 5.1359 62.6676 5.2514 62.0844 4.81634C60.6375 3.73865 58.9192 3.16866 57.1137 3.16866C52.5141 3.16866 48.7707 6.91915 48.7707 11.5282C48.7707 16.1373 52.5141 19.8912 57.1137 19.8912C57.6954 19.8912 58.2823 19.8298 58.8548 19.7087C59.5723 19.5518 60.2711 20.0064 60.4234 20.7115C60.5757 21.4161 60.1217 22.1087 59.4069 22.2597C58.6539 22.4195 57.881 22.5 57.1137 22.5" fill="#E51236"/>
<path d="M10.7172 21.8038C9.98779 21.8038 9.39655 21.2201 9.39655 20.4991V12.7073C9.39655 11.987 9.98779 11.4033 10.7172 11.4033C11.4466 11.4033 12.0384 11.987 12.0384 12.7073V20.4991C12.0384 21.2201 11.4467 21.8038 10.7172 21.8038Z" fill="#E51236"/>
<path d="M13.4766 9.32414C13.0982 9.32414 12.7223 9.16371 12.4614 8.85463C11.9941 8.2998 12.0712 7.47836 12.6315 7.01701L19.4016 1.45272C19.9618 0.991497 20.7941 1.06608 21.2608 1.62117C21.7281 2.17485 21.6515 2.99655 21.0908 3.45712L14.3212 9.0227C14.0742 9.22496 13.7749 9.32414 13.4766 9.32414Z" fill="#E51236"/>
<path d="M8.09449 9.32465C7.79638 9.32465 7.49735 9.22547 7.2505 9.02322L0.476137 3.45763C-0.0844276 2.99836 -0.161118 2.17523 0.305188 1.62169C0.771364 1.06802 1.60487 0.99201 2.16557 1.45323L8.93993 7.01752C9.5001 7.47757 9.57719 8.30031 9.11088 8.85515C8.84947 9.16422 8.4731 9.32465 8.09449 9.32465Z" fill="#E51236"/>
</svg>
